<svg width="637" height="515" viewBox="0 0 637 515" fill="none" xmlns="http://www.w3.org/2000/svg">
<g clip-path="url(#clip0_21_612)">
<path d="M143.38 260.465C135.274 259.92 131.499 261.497 129.062 263.103C128.279 263.618 127.507 264.222 126.777 264.875C130.461 257.404 134.235 249.968 138.08 242.583C138.105 243.574 138.282 244.044 138.717 244.28C139.715 244.817 142.041 243.095 146.653 239.629C150.158 236.995 150.606 236.327 150.867 235.869C151.783 234.26 151.705 232.934 151.14 227.154C150.126 216.778 149.865 215.804 150.357 213.354C150.526 212.511 150.988 210.478 150.66 210.361C150.323 210.242 149.799 212.374 147.934 213.766C146.117 215.122 144.838 214.421 143.186 215.294C141.051 216.423 140.463 219.033 139.579 223.234C138.797 226.955 138.996 228.271 138.53 235.281C138.398 237.267 138.272 238.812 138.186 240.028C134.744 246.608 131.365 253.235 128.047 259.888C128.092 259.705 128.135 259.533 128.171 259.384C129.198 255.178 128.856 253.237 128.34 251.873C127.504 249.664 125.843 248.341 122.554 245.786C119.332 243.282 116.606 241.841 113.331 240.128C109.038 237.884 106.891 236.762 106.309 237.09C104.846 237.913 105.064 242.23 106.285 247.631C103.505 246.197 102.028 245.525 101.561 245.788C101.36 245.902 101.192 246.083 101.052 246.322C98.9737 246.22 96.2184 246.338 93.0659 246.751C95.5533 245.852 98.3487 244.667 101.36 243.049C103.97 241.648 105.273 240.935 105.148 240.346C104.7 238.237 86.8775 238.28 71.5991 246.294C64.4059 250.067 62.0139 253.385 60.777 256.028C60.3798 256.877 60.0376 257.796 59.7572 258.734C58.9869 250.44 58.3103 242.129 57.7222 233.824C58.2625 234.656 58.659 234.965 59.1536 234.938C60.285 234.875 61.3662 232.191 63.4825 226.826C65.0911 222.748 65.1232 221.944 65.1058 221.418C65.0447 219.568 64.2841 218.478 60.777 213.847C54.4823 205.535 53.7499 204.841 52.8864 202.496C52.5891 201.689 51.9188 199.715 51.5782 199.787C51.2282 199.861 51.8981 201.952 51.0371 204.113C50.1978 206.219 48.7412 206.291 47.7905 207.899C46.5614 209.977 47.4269 212.509 48.8727 216.551C50.153 220.131 51.0121 221.148 54.2837 227.367C55.2104 229.128 55.9123 230.511 56.476 231.592C56.9855 238.999 57.575 246.414 58.2298 253.818C58.1727 253.639 58.1186 253.471 58.0714 253.324C56.7448 249.203 55.4371 247.727 54.2837 246.835C52.4151 245.389 50.307 245.13 46.1671 244.672C42.1103 244.222 39.0327 244.419 35.345 244.672C30.5111 245.004 28.0941 245.169 27.7695 245.753C26.8786 247.356 29.8893 251.467 34.3882 255.864C30.7156 256.124 28.8435 256.316 28.5608 256.824C27.8215 258.154 29.7737 261.214 33.0264 264.728C30.7655 264.922 29.573 265.126 29.3521 265.523C26.8702 269.988 54.6022 293.906 60.7362 289.318C61.202 288.969 61.5319 288.457 61.7591 287.834C61.8596 288.677 61.9622 289.521 62.0647 290.365C54.8184 289.55 40.8985 291.733 32.6395 300.372C28.5338 304.667 27.915 308.374 27.7695 309.566C27.1243 314.848 29.6964 320.47 31.8303 320.883C32.4603 324.815 34.4345 328.067 36.0547 328.039C38.0861 328.004 37.7267 322.846 42.548 317.223C45.9122 313.3 49.9127 311.351 52.2879 310.193C57.3893 307.707 60.3534 307.78 64.0282 305.755C64.102 306.301 64.1806 306.846 64.2552 307.391C57.5238 308.52 49.837 311.405 44.5085 316.979C40.4028 321.274 39.784 324.981 39.6385 326.172C39.241 329.426 40.0682 332.806 41.2585 335.025C38.0203 338.424 37.1251 341.973 35.3451 349.043C34.2079 353.559 34.4562 355.162 35.3451 356.073C36.0801 356.826 37.2413 357.095 41.8383 356.613C46.825 356.091 49.3184 355.83 51.5782 354.991C55.1529 353.664 57.6173 351.384 62.4003 346.879C64.3671 345.027 66.0302 343.453 67.3859 342.081C68.0913 342.321 68.7533 342.504 69.4218 342.636C69.4995 342.651 69.576 342.662 69.6533 342.677C70.8868 349.982 72.1901 357.266 73.5615 364.519C69.1001 365.515 65.2882 368.449 63.1936 372.673L46.6412 406.047C45.5962 408.153 45.0438 410.509 45.0438 412.861V498.677C45.0438 507.138 51.9315 514.022 60.3977 514.022H99.0335C107.5 514.022 114.387 507.138 114.387 498.677V419.657C114.387 417.731 114.03 415.845 113.326 414.051L97.5508 373.882C95.2699 368.074 89.8189 364.293 83.6036 364.156C86.8263 355.659 90.151 347.173 93.5921 338.721C94.1224 338.515 94.5917 338.302 94.9994 338.075C95.6342 338.771 96.935 339.582 99.6932 340.901C104.217 343.063 106.478 344.144 108.843 344.61C112.585 345.348 115.878 344.693 122.313 343.354C131.068 341.533 135.464 340.57 136.38 338.024C137.647 334.501 133.672 329.962 132.576 328.711C130.194 325.992 127.566 324.752 125.941 324.007C123.832 323.039 117.821 320.279 110.554 322.182C105.981 323.38 103.361 325.938 98.1221 331.053C97.6177 331.546 97.1821 331.994 96.7954 332.411C96.7083 332.161 96.61 331.913 96.5021 331.668C97.2368 329.897 97.9717 328.128 98.7153 326.361C104.088 321.267 106.732 318.463 106.23 316.055C105.994 314.925 105.282 313.974 104.365 313.184C105.384 310.845 106.405 308.508 107.439 306.179C107.914 306.168 108.404 306.146 108.932 306.096C111.701 305.835 114.835 305.54 115.169 304.211C115.346 303.508 114.737 302.481 113.541 301.324C115.27 300.841 117.904 297.323 123.817 295.419C128.738 293.834 133.168 294.264 135.798 294.519C142.585 295.178 144.799 297.38 150.902 296.805C153.67 296.544 156.804 296.249 157.138 294.92C157.289 294.323 156.869 293.492 156.01 292.547C157.548 292.759 159.193 292.927 160.947 293.028C163.905 293.198 165.389 293.271 165.591 292.704C166.313 290.673 151.101 281.392 133.885 280.234C129.705 279.954 126.683 280.239 124.395 280.8C129.898 278.747 138.088 275.625 147.08 278.152C150.175 279.022 156.439 281.426 165.695 281.957C168.653 282.127 170.136 282.2 170.338 281.633C171.06 279.603 155.861 270.329 138.654 269.165C142.648 268.358 147.128 268.133 151.827 269.454C154.923 270.323 161.187 272.727 170.442 273.258C173.401 273.428 174.884 273.502 175.086 272.934C175.808 270.903 160.596 261.622 143.38 260.465L143.38 260.465ZM63.8479 296.023C64.081 295.84 64.3096 295.656 64.5299 295.473C64.9249 296.053 65.342 296.499 65.7592 296.781C65.8036 297.014 65.8512 297.243 65.9045 297.469C65.3167 297.406 64.687 297.364 64.0202 297.342C63.964 296.902 63.9036 296.462 63.8479 296.023L63.8479 296.023ZM97.8502 265.593C97.9175 265.978 97.9903 266.371 98.0706 266.772C97.335 266.632 96.4926 266.531 95.5713 266.472C96.306 266.205 97.0646 265.915 97.8502 265.593ZM99.6023 272.868C99.0375 272.811 98.4335 272.774 97.7981 272.754C98.2949 272.377 98.7859 271.993 99.2407 271.611C99.3569 272.028 99.4772 272.447 99.6023 272.868ZM86.5761 285.399C92.4025 282.664 95.4197 283.247 100.196 279.66C100.641 279.326 101.096 278.983 101.539 278.638C103.124 282.861 105.021 286.89 106.975 289.811C101.502 287.049 93.984 284.806 86.5761 285.399ZM100.602 250.561C100.777 252.865 101.343 255.795 102.185 258.943C102.138 258.943 102.09 258.942 102.041 258.942C99.9506 257.891 98.7987 257.423 98.3961 257.65C97.9768 257.886 97.6959 258.41 97.5368 259.164C90.9658 259.789 82.109 261.796 73.9729 266.064C66.7797 269.837 64.3877 273.155 63.1508 275.798C62.6235 276.925 62.1926 278.174 61.8762 279.429C61.7139 277.973 61.5469 276.52 61.3901 275.062C64.9262 273.687 70.2724 260.407 83.5034 256.656C86.4999 255.806 92.7884 254.62 100.602 250.561H100.602ZM62.1099 297.335C62.2074 297.264 62.3013 297.202 62.4003 297.128C62.5512 297.014 62.7035 296.9 62.8561 296.785C62.8791 296.965 62.9037 297.145 62.9267 297.325C62.6584 297.325 62.3875 297.328 62.1099 297.335H62.1099ZM65.0406 305.152C65.4673 304.879 65.9019 304.586 66.3566 304.245C67.041 303.731 67.7527 303.196 68.3988 302.663C68.8992 303.167 69.4121 303.462 69.8942 303.454C70.0828 303.451 70.2459 303.389 70.3994 303.301C69.9848 304.541 69.7405 305.756 69.6627 306.836C68.3014 306.884 66.8457 307.006 65.3243 307.223C65.2298 306.533 65.1337 305.842 65.0406 305.152ZM82.4514 364.143H76.9501C76.1622 364.143 75.3864 364.207 74.6252 364.321C73.2767 357.189 71.9946 350.027 70.7796 342.845C74.0147 343.203 77.2427 342.556 82.891 341.381C86.8929 340.548 89.9742 339.894 92.2386 339.187C88.8697 347.481 85.6097 355.807 82.4514 364.143ZM95.3316 329.547C95.784 329.125 96.2629 328.675 96.7621 328.205C96.457 328.934 96.1601 329.667 95.8565 330.397C95.6873 330.103 95.5113 329.82 95.3316 329.547ZM98.1132 310.106C94.6604 309.034 91.7711 309.352 89.9967 309.566C87.7719 309.833 81.5769 310.593 76.4743 315.523C74.7711 315.478 72.8427 315.572 70.7879 315.83C71.882 315.329 73.0144 314.677 74.2693 313.734C76.4921 312.065 79.0087 310.174 78.5981 308.867C78.4084 308.263 77.5755 307.762 76.2877 307.404C77.7383 306.443 79.5402 305.453 81.8479 304.71C86.7685 303.125 91.1985 303.555 93.8286 303.811C99.5221 304.363 102.005 305.996 106.257 306.17C105.323 308.279 104.4 310.395 103.478 312.511C101.503 311.165 99.0633 310.401 98.1132 310.106H98.1132ZM110.633 299.043C110.671 298.96 110.707 298.877 110.745 298.794C111.039 298.76 111.33 298.723 111.613 298.682C111.634 299.109 111.688 299.495 111.774 299.839C111.419 299.575 111.034 299.31 110.633 299.043ZM119.566 282.873C119.54 282.89 119.514 282.91 119.488 282.927C119.551 282.702 119.609 282.485 119.667 282.272C120.151 282.205 120.706 282.069 121.324 281.88C120.661 282.197 120.081 282.533 119.566 282.873Z" fill="#F2F2F2"/>
<path d="M190.831 506.785L202.9 506.784L208.641 460.261L190.829 460.262L190.831 506.785Z" fill="#FFB6B6"/>
<path d="M232.179 506.511C232.555 507.144 232.753 509.185 232.753 509.921C232.753 512.181 230.92 514.014 228.657 514.014H191.283C189.74 514.014 188.488 512.764 188.488 511.221V509.666C188.488 509.666 186.64 504.993 190.446 499.232C190.446 499.232 195.177 503.743 202.246 496.677L204.331 492.903L219.421 503.933L227.786 504.962C229.616 505.187 231.238 504.927 232.179 506.511H232.179H232.179Z" fill="#2F2E41"/>
<path d="M257.298 506.785L269.366 506.784L275.107 460.261L257.295 460.262L257.298 506.785Z" fill="#FFB6B6"/>
<path d="M298.646 506.511C299.021 507.144 299.22 509.185 299.22 509.921C299.22 512.181 297.386 514.014 295.124 514.014H257.749C256.206 514.014 254.955 512.764 254.955 511.221V509.666C254.955 509.666 253.106 504.993 256.912 499.232C256.912 499.232 261.643 503.743 268.713 496.677L270.797 492.903L285.888 503.933L294.252 504.962C296.082 505.187 297.704 504.927 298.645 506.511H298.646H298.646Z" fill="#2F2E41"/>
<path d="M252.449 136.449C252.449 136.449 266.349 130.123 275.225 136.449C284.1 142.775 292.013 199.712 282.517 209.202C273.022 218.691 257.197 197.34 257.197 197.34L252.449 136.449Z" fill="#FFB6B6"/>
<path d="M199.916 137.202C199.916 137.202 186.016 130.876 177.141 137.202C168.265 143.529 160.353 200.466 169.848 209.955C179.343 219.444 195.168 198.093 195.168 198.093L199.916 137.202Z" fill="#FFB6B6"/>
<path d="M200.312 207.187C200.312 207.187 195.564 228.539 190.025 238.028L230.38 261.752L262.03 241.191C262.03 241.191 246.996 216.677 249.37 209.56L200.312 207.187Z" fill="#FFB6B6"/>
<path d="M475.255 504.414L459.756 504.412L452.384 444.668L475.258 444.67L475.255 504.414Z" fill="#FFB6B6"/>
<path d="M422.156 504.063C421.673 504.875 421.418 507.496 421.418 508.441C421.418 511.344 423.773 513.698 426.679 513.698H474.675C476.657 513.698 478.264 512.092 478.264 510.112V508.114C478.264 508.114 480.638 502.112 475.75 494.714C475.75 494.714 469.674 500.507 460.596 491.434L457.918 486.587L438.54 500.751L427.798 502.073C425.448 502.362 423.365 502.028 422.156 504.063H422.156Z" fill="#2F2E41"/>
<path d="M523.162 504.414L507.663 504.412L500.291 444.668L523.165 444.67L523.162 504.414Z" fill="#FFB6B6"/>
<path d="M470.062 504.063C469.58 504.875 469.325 507.496 469.325 508.441C469.325 511.344 471.68 513.698 474.585 513.698H522.582C524.564 513.698 526.171 512.092 526.171 510.112V508.114C526.171 508.114 528.545 502.112 523.657 494.714C523.657 494.714 517.581 500.507 508.503 491.434L505.825 486.587L486.446 500.751L475.705 502.073C473.355 502.362 471.271 502.028 470.063 504.063H470.062Z" fill="#2F2E41"/>
<path d="M443.012 159.766C443.012 159.766 440.767 174.206 443.367 183.524L405.194 251.173L420.043 261.99L469.632 199.635L476.504 168.827L443.012 159.766Z" fill="#FFB6B6"/>
<path d="M417.765 271.83C423.025 262.507 422.619 252.317 416.857 249.07C411.096 245.823 402.161 250.748 396.9 260.071C391.64 269.393 392.046 279.583 397.807 282.83C403.569 286.077 412.504 281.152 417.765 271.83Z" fill="#FFB6B6"/>
<path d="M457.903 228.594C457.903 228.594 439.653 241.466 445.927 260.679L440.794 325.491L452.2 458.866H476.769L480.716 363.109L496.685 302.691L498.755 458.866L529.194 458.296C529.194 458.296 530.905 380.209 528.623 375.649C526.342 371.089 528.623 374.747 528.623 374.747L547.444 283.299L544.592 220.614L457.903 228.594Z" fill="#2F2E41"/>
<path d="M502.959 69.5699L469.88 82.1095L473.302 91.2292L445.927 111.748L464.177 175.586L453.911 232.584L483.568 231.444L547.444 225.744L540.6 156.207L541.741 88.9492L516.646 79.8296L502.959 69.5699Z" fill="#6C63FF"/>
<path d="M454.482 110.038L445.927 111.748C445.927 111.748 441.934 114.598 441.934 124.858C441.934 135.118 441.934 141.957 443.075 147.657C443.075 147.657 436.231 165.896 438.513 170.456C440.794 175.016 469.31 175.016 469.31 175.016L454.482 110.038V110.038Z" fill="#6C63FF"/>
<path d="M501.621 43.1175C501.621 57.469 489.979 69.1032 475.619 69.1032C461.259 69.1032 449.618 57.469 449.618 43.1175C449.618 28.766 461.259 17.1318 475.619 17.1318C489.979 17.1318 501.621 28.766 501.621 43.1175Z" fill="#FFB6B6"/>
<path d="M491.868 61.2121C491.868 61.2121 496.474 43.5261 491.566 46.6447L483.949 45.9213L488.758 33.0634C488.758 33.0634 480.148 26.6126 476.715 30.3834C473.282 34.1542 474.105 36.2807 470.984 31.3754C467.864 26.4702 461.344 26.5629 455.372 30.0925C449.4 33.6222 444.733 34.2032 445.868 27.6536C447.003 21.1041 446.367 9.97503 449.912 11.2372C453.458 12.4993 452.486 13.2117 454.397 8.63803C456.309 4.06438 456.551 1.52679 460.976 3.4834C465.402 5.44 476.523 -3.74582 481.119 1.81165C485.715 7.36912 489.729 8.26245 493.743 9.1558C497.758 10.0491 513.886 7.48405 512.537 32.4489C512.537 32.4489 523.303 53.9554 503.911 63.8921C503.911 63.8921 498.649 58.7017 494.974 65.0101L491.868 61.2121H491.868Z" fill="#2F2E41"/>
<path d="M242.249 117.037L216.928 117.828L203.477 134.434L188.443 137.598C188.443 137.598 183.695 181.882 190.816 197.698C197.938 213.514 194.773 218.258 194.773 218.258L251.744 217.468C251.744 217.468 250.161 206.726 259.656 197.467L264.418 179.856C266.964 170.44 266.097 160.427 261.969 151.589L251.744 129.69L243.04 126.527L242.249 117.037V117.037Z" fill="#2F2E41"/>
<path d="M194.773 227.748L191.212 233.679C191.212 233.679 180.134 248.704 178.552 291.406C176.969 334.109 190.025 472.289 190.025 472.289H208.093L227.626 285.339L253.722 472.498L277.064 472.893L275.086 281.917C275.086 281.917 270.338 238.423 257.678 228.934C257.678 228.934 216.928 265.706 194.773 227.748Z" fill="#2F2E41"/>
<path d="M161.819 134.065C161.819 142.275 161.324 148.384 152.354 148.93C143.929 149.444 142.889 142.275 142.889 134.065C142.889 125.855 143.085 119.267 152.354 119.2C162.907 119.124 161.819 125.855 161.819 134.065Z" fill="#6C63FF"/>
<path d="M214.554 134.065C214.554 142.275 216.713 148.384 205.089 148.93C196.147 149.351 195.624 142.275 195.624 134.065C195.624 125.855 196.937 120.121 205.089 119.2C212.757 118.334 214.554 125.855 214.554 134.065Z" fill="#6C63FF"/>
<path d="M206.441 127.308H153.706V139.471H206.441V127.308Z" fill="#6C63FF"/>
<path d="M252.815 131.693C252.815 139.903 252.32 146.011 243.349 146.558C234.924 147.071 233.884 139.903 233.884 131.693C233.884 123.483 234.08 116.894 243.349 116.828C253.902 116.752 252.815 123.483 252.815 131.693Z" fill="#6C63FF"/>
<path d="M305.55 131.693C305.55 139.903 307.708 146.011 296.085 146.558C287.142 146.978 286.619 139.903 286.619 131.693C286.619 123.483 287.933 117.749 296.085 116.828C303.752 115.961 305.55 123.483 305.55 131.693Z" fill="#6C63FF"/>
<path d="M297.437 124.936H244.702V137.098H297.437V124.936Z" fill="#6C63FF"/>
<path d="M390.495 261.383C390.495 269.592 390 275.701 381.03 276.248C372.604 276.761 371.564 269.592 371.564 261.383C371.564 253.173 371.761 246.584 381.03 246.517C391.583 246.442 390.495 253.173 390.495 261.383Z" fill="#6C63FF"/>
<path d="M443.23 261.383C443.23 269.592 445.389 275.701 433.765 276.248C424.822 276.668 424.299 269.592 424.299 261.383C424.299 253.173 425.613 247.439 433.765 246.517C441.432 245.651 443.23 253.173 443.23 261.383Z" fill="#6C63FF"/>
<path d="M435.117 254.626H382.382V266.788H435.117V254.626Z" fill="#6C63FF"/>
<path d="M271.474 150.372C277.152 150.372 281.755 142.924 281.755 133.737C281.755 124.55 277.152 117.102 271.474 117.102C265.796 117.102 261.193 124.55 261.193 133.737C261.193 142.924 265.796 150.372 271.474 150.372Z" fill="#FFB6B6"/>
<path d="M222.863 107.548C238.376 107.548 250.952 94.9788 250.952 79.4745C250.952 63.9702 238.376 51.4014 222.863 51.4014C207.349 51.4014 194.773 63.9702 194.773 79.4745C194.773 94.9788 207.349 107.548 222.863 107.548Z" fill="#FFB6B6"/>
<path d="M217.223 88.2956L223.722 77.959L226.649 63.9013C226.649 63.9013 256.256 71.1182 248.313 56.6844C240.369 42.2506 220.15 38.6422 206.429 49.4675L200.516 55.241C200.516 55.241 213.651 42.9723 205.707 38.6421C197.764 34.312 199.208 31.4252 194.876 35.0337C190.543 38.6421 192.709 41.5289 187.654 39.3638C182.599 37.1988 171.768 34.312 173.212 37.9205C174.656 41.5289 163.762 50.9109 167.765 55.241C171.768 59.5712 168.157 68.2315 175.378 66.0664C182.599 63.9013 178.989 74.7267 185.488 70.3966C185.488 70.3966 180.153 77.1904 184.486 82.2422C188.819 87.2941 195.495 89.2596 194.773 96.4765C194.051 103.693 211.389 105.175 211.389 105.175L210.04 84.1087C210.04 84.1087 214.334 80.59 217.223 88.2956Z" fill="#2F2E41"/>
<path d="M503.207 136.737C503.207 136.737 499.065 150.751 500.405 160.331L453.59 222.322L466.872 235.011L524.3 179.782L535.2 150.157L503.207 136.737V136.737Z" fill="#FFB6B6"/>
<path d="M463.308 244.462C469.759 235.919 470.709 225.766 465.429 221.783C460.15 217.801 450.64 221.498 444.188 230.041C437.737 238.584 436.787 248.737 442.067 252.72C447.346 256.702 456.856 253.005 463.308 244.462Z" fill="#FFB6B6"/>
<path d="M537.133 85.2041C537.133 85.2041 551.717 90.492 549.862 100.518C548.006 110.544 547.302 117.154 547.302 117.154C547.302 117.154 548.882 122.63 546.821 125.36C544.759 128.09 534.176 160.096 534.176 160.096L496.11 147.094C496.11 147.094 518.426 85.3756 537.133 85.2041Z" fill="#6C63FF"/>
<path d="M637 514.336C637 514.703 636.702 515 636.335 515H0.664686C0.297595 515 0 514.703 0 514.336C0 513.969 0.297587 513.671 0.664686 513.671H636.335C636.702 513.671 637 513.969 637 514.336Z" fill="#E6E6E6"/>
<path d="M191.172 134.491C191.172 143.678 186.569 151.125 180.891 151.125C175.214 151.125 170.611 143.678 170.611 134.491C170.611 125.303 175.214 117.856 180.891 117.856C186.569 117.856 191.172 125.303 191.172 134.491Z" fill="#FFB6B6"/>
</g>
<defs>
<clipPath id="clip0_21_612">
<rect width="637" height="515" fill="white"/>
</clipPath>
</defs>
</svg>
