<svg width="80" height="85" viewBox="0 0 80 85" fill="none" xmlns="http://www.w3.org/2000/svg">
<g filter="url(#filter0_d_21_610)">
<path fill-rule="evenodd" clip-rule="evenodd" d="M39.9998 0C54.9115 0 66.9998 12.0883 66.9998 27C66.9998 34.8806 63.6235 41.9727 58.2386 46.9086L75.0798 75.492C75.3601 75.968 75.2016 76.581 74.7258 76.862C74.572 76.952 74.3967 77 74.2182 77H5.78119C5.22899 77 4.78119 76.552 4.78119 76C4.78119 75.821 4.82919 75.646 4.92009 75.492L21.7812 46.9271C16.3845 41.9904 12.9998 34.8905 12.9998 27C12.9998 12.0883 25.0881 0 39.9998 0ZM39.9998 5C27.8495 5 17.9998 14.8497 17.9998 27C17.9998 39.1503 27.8495 49 39.9998 49C52.15 49 61.9998 39.1503 61.9998 27C61.9998 14.8497 52.15 5 39.9998 5ZM40.9112 17.496L52.9873 37.9938C49.8689 41.6852 45.2079 44.0292 39.9998 44.0292C34.8052 44.0292 30.1549 41.6974 27.0366 38.0226L39.1539 17.496C39.5435 16.8347 40.5225 16.8347 40.9112 17.496Z" fill="white"/>
</g>
<defs>
<filter id="filter0_d_21_610" x="0.781189" y="0" width="78.4371" height="85" filterUnits="userSpaceOnUse" color-interpolation-filters="sRGB">
<feFlood flood-opacity="0" result="BackgroundImageFix"/>
<feColorMatrix in="SourceAlpha" type="matrix" values="0 0 0 0 0 0 0 0 0 0 0 0 0 0 0 0 0 0 127 0" result="hardAlpha"/>
<feOffset dy="4"/>
<feGaussianBlur stdDeviation="2"/>
<feComposite in2="hardAlpha" operator="out"/>
<feColorMatrix type="matrix" values="0 0 0 0 0 0 0 0 0 0 0 0 0 0 0 0 0 0 0.25 0"/>
<feBlend mode="normal" in2="BackgroundImageFix" result="effect1_dropShadow_21_610"/>
<feBlend mode="normal" in="SourceGraphic" in2="effect1_dropShadow_21_610" result="shape"/>
</filter>
</defs>
</svg>
